<?xml version="1.0" encoding="UTF-8" standalone="no"?>
<!-- Created with Inkscape (http://www.inkscape.org/) -->

<svg
   width="57.520794"
   height="66.367683"
   viewBox="0 0 15.219044 17.559783"
   version="1.1"
   id="svg5"
   xml:space="preserve"
   xmlns:xlink="http://www.w3.org/1999/xlink"
   xmlns="http://www.w3.org/2000/svg"
   xmlns:svg="http://www.w3.org/2000/svg"><defs
     id="defs2"><linearGradient
       id="linearGradient3069"><stop
         style="stop-color:#ffffff;stop-opacity:0;"
         offset="0"
         id="stop3067" /></linearGradient><linearGradient
       id="linearGradient3063"><stop
         style="stop-color:#ffffff;stop-opacity:1;"
         offset="0"
         id="stop3061" /></linearGradient><linearGradient
       id="linearGradient938"><stop
         style="stop-color:#338fff;stop-opacity:1;"
         offset="0"
         id="stop936" /></linearGradient><linearGradient
       id="linearGradient18130"><stop
         style="stop-color:#338fff;stop-opacity:1;"
         offset="0"
         id="stop18128" /></linearGradient><linearGradient
       id="linearGradient11697"><stop
         style="stop-color:#ffffff;stop-opacity:1;"
         offset="0"
         id="stop11695" /></linearGradient><linearGradient
       xlink:href="#linearGradient18130"
       id="linearGradient18132"
       x1="18.783092"
       y1="46.095924"
       x2="73.211472"
       y2="46.095924"
       gradientUnits="userSpaceOnUse" /><linearGradient
       xlink:href="#linearGradient18130"
       id="linearGradient26522"
       gradientUnits="userSpaceOnUse"
       x1="18.783092"
       y1="46.095924"
       x2="73.211472"
       y2="46.095924" /><linearGradient
       xlink:href="#linearGradient18130"
       id="linearGradient26524"
       gradientUnits="userSpaceOnUse"
       x1="18.783092"
       y1="46.095924"
       x2="73.211472"
       y2="46.095924" /><linearGradient
       xlink:href="#linearGradient18130"
       id="linearGradient26526"
       gradientUnits="userSpaceOnUse"
       x1="18.783092"
       y1="46.095924"
       x2="73.211472"
       y2="46.095924" /></defs><g
     id="layer3"
     style="display:none"
     transform="translate(-42.834522,-26.878815)"><g
       id="g11019"
       transform="matrix(0.53446885,0,0,0.53446885,30.850143,15.188494)"
       style="stroke:url(#linearGradient18132);stroke-width:1.90521;stroke-dasharray:none;stroke-opacity:1"><polygon
         style="opacity:1;fill:#ffffff;fill-rule:nonzero;stroke:url(#linearGradient26522);stroke-width:3.21887;stroke-linecap:butt;stroke-linejoin:miter;stroke-miterlimit:4;stroke-dasharray:none;stroke-dashoffset:0;stroke-opacity:1"
         vector-effect="non-scaling-stroke"
         points="50,-50 -50,-50 -50,50 50,50 "
         id="polygon66"
         transform="matrix(0.20910492,0,0,0.20910492,28.825238,47.338589)" /><polygon
         style="opacity:1;fill:#ffffff;fill-rule:nonzero;stroke:url(#linearGradient26524);stroke-width:3.21887;stroke-linecap:butt;stroke-linejoin:miter;stroke-miterlimit:4;stroke-dasharray:none;stroke-dashoffset:0;stroke-opacity:1"
         vector-effect="non-scaling-stroke"
         points="50,-50 -50,-50 -50,50 50,50 "
         id="polygon70"
         transform="matrix(0.20910492,0,0,0.20910492,39.509249,38.750096)" /><polygon
         style="display:inline;opacity:1;fill:#ffffff;fill-opacity:1;fill-rule:nonzero;stroke:url(#linearGradient26526);stroke-width:3.21887;stroke-linecap:butt;stroke-linejoin:miter;stroke-miterlimit:4;stroke-dasharray:none;stroke-dashoffset:0;stroke-opacity:1;image-rendering:auto"
         vector-effect="non-scaling-stroke"
         points="-50,50 50,50 50,-50 -50,-50 "
         id="polygon242"
         transform="matrix(0.20910492,0,0,0.20910492,52.275281,30.38694)" /></g></g><g
     id="layer2"
     style="display:inline"
     transform="translate(-42.834522,-26.878815)"><g
       style="fill:#ffffff;fill-opacity:1;stroke:none"
       id="g3059"
       transform="matrix(-0.32961636,0,0,0.32961636,59.673302,26.429449)"><path
         d="m 7.328,43.5039 c 0.4453,0 0.9141,-0.1406 1.3828,-0.4687 V 17.957 c 0,-0.8437 0.1641,-1.1718 0.9141,-1.5703 L 31.3515,3.8711 c 0.0703,-1.5469 -0.9141,-2.5078 -2.25,-2.5078 -0.6094,0 -1.2657,0.1641 -1.9688,0.5859 L 7.4921,13.2461 C 5.1952,14.582 4.914,15.0039 4.914,17.6758 v 22.4297 c 0,2.0156 0.9609,3.3984 2.414,3.3984 z m 9.375,5.4141 c 0.4219,0 0.8906,-0.1407 1.3828,-0.4688 V 23.3711 c 0,-0.9141 0.1172,-1.1485 0.8906,-1.5703 L 40.703,9.2617 c 0.0703,-1.5234 -0.8906,-2.5078 -2.25,-2.5078 -0.5859,0 -1.2656,0.1875 -1.9453,0.5625 L 16.8202,18.6367 c -2.2969,1.3125 -2.5547,1.8047 -2.5547,4.4297 v 22.4531 c 0,2.0157 1.0078,3.3985 2.4375,3.3985 z m 10.0313,5.7187 c 0.8203,0 1.8046,-0.3281 2.9765,-0.9844 L 48.086,43.1055 c 2.1562,-1.2422 3,-2.5313 3,-5.1563 L 51.039,16.7148 c 0,-2.8125 -1.008,-4.2422 -2.7658,-4.2422 -0.7732,0 -1.7577,0.3048 -2.8592,0.9375 L 26.9921,24.0274 c -2.2032,1.289 -2.9766,2.6015 -2.9766,5.1562 v 21.2343 c 0,2.7188 0.9609,4.2188 2.7188,4.2188 z m 1.2656,-4.5703 C 27.8827,50.043 27.8358,49.9726 27.8358,49.8086 l 0.1641,-20.5547 c 0,-0.8906 0.2578,-1.3594 1.0547,-1.8047 L 46.7968,17.0195 c 0.0703,-0.0469 0.1406,-0.0469 0.2342,-0.0234 0.0941,0.0234 0.1642,0.0938 0.1642,0.2578 l -0.0701,20.625 c 0,0.7734 -0.2815,1.3594 -1.0549,1.8281 L 28.2343,50.043 c -0.0938,0.0469 -0.1641,0.0469 -0.2344,0.0234 z"
         id="path3050"
         style="fill:#ffffff;fill-opacity:1;stroke:none" /></g></g></svg>
